<svg width="34" height="34" viewBox="0 0 34 34" fill="none" xmlns="http://www.w3.org/2000/svg">
<path d="M24.0954 29.7429L9.92871 29.7564C6.81205 29.7592 4.25992 27.212 4.25638 24.0954L4.24292 9.92871C4.24009 6.81205 6.78726 4.25992 9.90392 4.25638L24.0706 4.24292C27.1873 4.24009 29.7394 6.78726 29.7429 9.90392L29.7564 24.0706C29.7599 27.188 27.212 29.7401 24.0954 29.7429Z" fill="url(#paint0_radial_10_242)"/>
<path d="M24.0954 29.7429L9.92871 29.7564C6.81205 29.7592 4.25992 27.212 4.25638 24.0954L4.24292 9.92871C4.24009 6.81205 6.78726 4.25992 9.90392 4.25638L24.0706 4.24292C27.1873 4.24009 29.7394 6.78726 29.7429 9.90392L29.7564 24.0706C29.7599 27.188 27.212 29.7401 24.0954 29.7429Z" fill="url(#paint1_radial_10_242)"/>
<path d="M17 21.9584C14.2666 21.9584 12.0417 19.7342 12.0417 17.0001C12.0417 14.2659 14.2666 12.0417 17 12.0417C19.7335 12.0417 21.9584 14.2659 21.9584 17.0001C21.9584 19.7342 19.7335 21.9584 17 21.9584ZM17 13.4584C15.0471 13.4584 13.4584 15.0472 13.4584 17.0001C13.4584 18.953 15.0471 20.5417 17 20.5417C18.9529 20.5417 20.5417 18.953 20.5417 17.0001C20.5417 15.0472 18.9529 13.4584 17 13.4584Z" fill="white"/>
<path d="M22.3125 12.75C22.8993 12.75 23.375 12.2743 23.375 11.6875C23.375 11.1007 22.8993 10.625 22.3125 10.625C21.7257 10.625 21.25 11.1007 21.25 11.6875C21.25 12.2743 21.7257 12.75 22.3125 12.75Z" fill="white"/>
<path d="M21.25 26.2084H12.75C10.0166 26.2084 7.79169 23.9842 7.79169 21.2501V12.7501C7.79169 10.0159 10.0166 7.79175 12.75 7.79175H21.25C23.9835 7.79175 26.2084 10.0159 26.2084 12.7501V21.2501C26.2084 23.9842 23.9835 26.2084 21.25 26.2084ZM12.75 9.20841C10.7971 9.20841 9.20835 10.7972 9.20835 12.7501V21.2501C9.20835 23.203 10.7971 24.7917 12.75 24.7917H21.25C23.2029 24.7917 24.7917 23.203 24.7917 21.2501V12.7501C24.7917 10.7972 23.2029 9.20841 21.25 9.20841H12.75Z" fill="white"/>
<defs>
<radialGradient id="paint0_radial_10_242" cx="0" cy="0" r="1" gradientUnits="userSpaceOnUse" gradientTransform="translate(13.7275 29.7748) scale(31.8035)">
<stop stop-color="#FFDD55"/>
<stop offset="0.328" stop-color="#FF543F"/>
<stop offset="0.348" stop-color="#FC5245"/>
<stop offset="0.504" stop-color="#E64771"/>
<stop offset="0.643" stop-color="#D53E91"/>
<stop offset="0.761" stop-color="#CC39A4"/>
<stop offset="0.841" stop-color="#C837AB"/>
</radialGradient>
<radialGradient id="paint1_radial_10_242" cx="0" cy="0" r="1" gradientUnits="userSpaceOnUse" gradientTransform="translate(8.34842 3.92439) scale(21.1175 14.0706)">
<stop stop-color="#4168C9"/>
<stop offset="0.999" stop-color="#4168C9" stop-opacity="0"/>
</radialGradient>
</defs>
</svg>
