<svg width="44" height="44" viewBox="0 0 44 44" fill="none" xmlns="http://www.w3.org/2000/svg">
<path d="M28.05 30.6166L30.6167 28.05L23.8333 21.2666V12.8333H20.1667V22.7333L28.05 30.6166ZM22 40.3333C19.4639 40.3333 17.0805 39.852 14.85 38.8895C12.6194 37.927 10.6792 36.6208 9.02916 34.9708C7.37916 33.3208 6.07291 31.3805 5.11041 29.15C4.14791 26.9194 3.66666 24.5361 3.66666 22C3.66666 19.4638 4.14791 17.0805 5.11041 14.85C6.07291 12.6194 7.37916 10.6791 9.02916 9.02913C10.6792 7.37913 12.6194 6.07288 14.85 5.11038C17.0805 4.14788 19.4639 3.66663 22 3.66663C24.5361 3.66663 26.9194 4.14788 29.15 5.11038C31.3805 6.07288 33.3208 7.37913 34.9708 9.02913C36.6208 10.6791 37.9271 12.6194 38.8896 14.85C39.8521 17.0805 40.3333 19.4638 40.3333 22C40.3333 24.5361 39.8521 26.9194 38.8896 29.15C37.9271 31.3805 36.6208 33.3208 34.9708 34.9708C33.3208 36.6208 31.3805 37.927 29.15 38.8895C26.9194 39.852 24.5361 40.3333 22 40.3333ZM22 36.6666C26.0639 36.6666 29.5243 35.2382 32.3812 32.3812C35.2382 29.5243 36.6667 26.0638 36.6667 22C36.6667 17.9361 35.2382 14.4757 32.3812 11.6187C29.5243 8.76177 26.0639 7.33329 22 7.33329C17.9361 7.33329 14.4757 8.76177 11.6187 11.6187C8.7618 14.4757 7.33332 17.9361 7.33332 22C7.33332 26.0638 8.7618 29.5243 11.6187 32.3812C14.4757 35.2382 17.9361 36.6666 22 36.6666Z" fill="black"/>
</svg>
