<svg width="34" height="34" viewBox="0 0 34 34" fill="none" xmlns="http://www.w3.org/2000/svg">
<path d="M3.44818 30.673L5.35643 23.7066C4.17918 21.668 3.5601 19.3546 3.56081 16.9852C3.56435 9.5725 9.59651 3.54175 17.0099 3.54175C20.6076 3.54316 23.9835 4.94354 26.5228 7.48433C29.0615 10.0258 30.4598 13.4032 30.4583 16.9958C30.4555 24.4085 24.4219 30.44 17.0099 30.44H17.0043C14.7539 30.4393 12.5418 29.8747 10.5776 28.803L3.44818 30.673Z" fill="white"/>
<path d="M3.44816 31.0271C3.35466 31.0271 3.26399 30.9903 3.1967 30.9223C3.10816 30.8323 3.07345 30.7013 3.10674 30.5802L4.97603 23.7547C3.8172 21.6962 3.20591 19.3587 3.20732 16.9858C3.21016 9.37692 9.4017 3.1875 17.0099 3.1875C20.7003 3.18892 24.1676 4.62613 26.7736 7.23421C29.3795 9.843 30.8139 13.3096 30.8125 16.9957C30.8097 24.604 24.6174 30.7941 17.0099 30.7941C14.751 30.7934 12.5162 30.2359 10.5329 29.1812L3.53811 31.0151C3.50836 31.0236 3.47861 31.0271 3.44816 31.0271Z" fill="white"/>
<path d="M17.0099 3.54159C20.6076 3.543 23.9835 4.94338 26.5229 7.48417C29.0615 10.0257 30.4598 13.403 30.4584 16.9957C30.4555 24.4084 24.4219 30.4398 17.0099 30.4398H17.0043C14.7539 30.4391 12.5418 29.8746 10.5776 28.8029L3.44819 30.6729L5.35644 23.7064C4.17919 21.6678 3.5601 19.3544 3.56081 16.985C3.56435 9.57234 9.59652 3.54159 17.0099 3.54159ZM17.0099 2.83325C9.20694 2.83325 2.85602 9.18134 2.85248 16.985C2.85177 19.37 3.45385 21.7203 4.59569 23.8006L2.76465 30.4866C2.69806 30.731 2.76606 30.9916 2.94456 31.1715C3.07915 31.3075 3.26119 31.3819 3.44819 31.3819C3.5084 31.3819 3.5686 31.3741 3.6281 31.3585L10.4897 29.5594C12.4929 30.5992 14.7383 31.1482 17.0043 31.1489C24.8129 31.1489 31.1639 24.8001 31.1674 16.9964C31.1688 13.2146 29.6976 9.65875 27.0251 6.98409C24.3511 4.30871 20.7946 2.83467 17.0099 2.83325Z" fill="#CFD8DC"/>
<path d="M24.9163 9.08925C22.8055 6.977 19.9998 5.81321 17.0135 5.8125C10.8481 5.8125 5.83383 10.8247 5.83099 16.9857C5.83029 19.0973 6.42104 21.1529 7.5402 22.9329L7.80654 23.3558L6.67674 27.479L10.9076 26.3697L11.3163 26.612C13.0319 27.6306 14.9997 28.1689 17.0057 28.1696H17.0099C23.171 28.1696 28.1853 23.1567 28.1874 16.995C28.1881 14.0093 27.0272 11.2015 24.9163 9.08925Z" fill="#40C351"/>
<path fill-rule="evenodd" clip-rule="evenodd" d="M13.6482 11.3653C13.3967 10.8057 13.1318 10.7943 12.8917 10.7844C12.6955 10.7759 12.4716 10.7766 12.2478 10.7766C12.024 10.7766 11.6599 10.8609 11.3518 11.1974C11.0436 11.5338 10.1752 12.3463 10.1752 13.9995C10.1752 15.6528 11.3794 17.2508 11.5473 17.4746C11.7151 17.6985 13.872 21.1998 17.2876 22.547C20.1259 23.6662 20.7039 23.4438 21.3201 23.3878C21.9364 23.3318 23.3084 22.5753 23.5882 21.7905C23.868 21.0057 23.868 20.3335 23.7844 20.1932C23.7001 20.053 23.4763 19.9694 23.1406 19.8008C22.8048 19.6322 21.1523 18.8198 20.8441 18.7078C20.536 18.5959 20.3122 18.54 20.0876 18.8764C19.8638 19.2122 19.2199 19.9694 19.0237 20.1932C18.8275 20.4178 18.6313 20.4461 18.2956 20.2775C17.9598 20.1089 16.8775 19.7548 15.5933 18.6101C14.5945 17.7197 13.9202 16.6197 13.724 16.2832C13.5278 15.9475 13.7027 15.7654 13.8713 15.5975C14.0222 15.4467 14.2071 15.2051 14.3756 15.0089C14.5435 14.8127 14.5995 14.6725 14.7114 14.4486C14.8233 14.2241 14.7674 14.0279 14.6831 13.86C14.6002 13.6914 13.9471 12.0297 13.6482 11.3653Z" fill="white"/>
</svg>
