<svg width="24" height="24" viewBox="0 0 24 24" fill="none" xmlns="http://www.w3.org/2000/svg">
<path d="M20.65 9.37501L19.25 7.97501L20 7.20001L16.8 4.00001L16.025 4.75001L14.6 3.32501L15.35 2.55001C15.7333 2.16668 16.2083 1.97918 16.775 1.98751C17.3417 1.99584 17.8167 2.19168 18.2 2.57501L21.425 5.80001C21.8083 6.18334 22 6.65418 22 7.21251C22 7.77084 21.8083 8.24168 21.425 8.62501L20.65 9.37501ZM8.65 21.4C8.26667 21.7833 7.79583 21.975 7.2375 21.975C6.67917 21.975 6.20833 21.7833 5.825 21.4L2.6 18.175C2.21667 17.7917 2.025 17.3208 2.025 16.7625C2.025 16.2042 2.21667 15.7333 2.6 15.35L3.35 14.6L4.775 16.025L4 16.775L7.225 20L7.975 19.225L9.4 20.65L8.65 21.4ZM18.575 13L20 11.575L12.425 4.00001L11 5.42501L18.575 13ZM11.575 20L13 18.55L5.45 11L4 12.425L11.575 20ZM11.425 14.15L14.175 11.425L12.575 9.82501L9.85 12.575L11.425 14.15ZM13 21.4C12.6167 21.7833 12.1417 21.975 11.575 21.975C11.0083 21.975 10.5333 21.7833 10.15 21.4L2.6 13.85C2.21667 13.4667 2.025 12.9917 2.025 12.425C2.025 11.8583 2.21667 11.3833 2.6 11L4.025 9.57501C4.40833 9.19168 4.87917 9.00001 5.4375 9.00001C5.99583 9.00001 6.46667 9.19168 6.85 9.57501L8.425 11.15L11.175 8.40001L9.6 6.85001C9.21667 6.46668 9.025 5.99168 9.025 5.42501C9.025 4.85834 9.21667 4.38334 9.6 4.00001L11.025 2.57501C11.4083 2.19168 11.8792 2.00001 12.4375 2.00001C12.9958 2.00001 13.4667 2.19168 13.85 2.57501L21.425 10.15C21.8083 10.5333 22 11.0042 22 11.5625C22 12.1208 21.8083 12.5917 21.425 12.975L20 14.4C19.6167 14.7833 19.1417 14.975 18.575 14.975C18.0083 14.975 17.5333 14.7833 17.15 14.4L15.6 12.825L12.85 15.575L14.425 17.15C14.8083 17.5333 15 18.0042 15 18.5625C15 19.1208 14.8083 19.5917 14.425 19.975L13 21.4Z" fill="#6B8BFF"/>
</svg>
