<svg width="24" height="24" viewBox="0 0 24 24" fill="none" xmlns="http://www.w3.org/2000/svg">
<path d="M12 12C10.9 12 9.95833 11.6083 9.175 10.825C8.39167 10.0417 8 9.1 8 8C8 6.9 8.39167 5.95833 9.175 5.175C9.95833 4.39167 10.9 4 12 4C13.1 4 14.0417 4.39167 14.825 5.175C15.6083 5.95833 16 6.9 16 8C16 9.1 15.6083 10.0417 14.825 10.825C14.0417 11.6083 13.1 12 12 12ZM4 20V17.2C4 16.6333 4.14167 16.1125 4.425 15.6375C4.70833 15.1625 5.1 14.8 5.6 14.55C6.6 14.05 7.6375 13.6667 8.7125 13.4C9.7875 13.1333 10.8833 13 12 13C13.1167 13 14.2125 13.1333 15.2875 13.4C16.3625 13.6667 17.4 14.05 18.4 14.55C18.9 14.8 19.2917 15.1625 19.575 15.6375C19.8583 16.1125 20 16.6333 20 17.2V20H4ZM12 10C12.55 10 13.0208 9.80417 13.4125 9.4125C13.8042 9.02083 14 8.55 14 8C14 7.45 13.8042 6.97917 13.4125 6.5875C13.0208 6.19583 12.55 6 12 6C11.45 6 10.9792 6.19583 10.5875 6.5875C10.1958 6.97917 10 7.45 10 8C10 8.55 10.1958 9.02083 10.5875 9.4125C10.9792 9.80417 11.45 10 12 10ZM16 15.7V18H18V17.2C18 17.0167 17.9583 16.85 17.875 16.7C17.7917 16.55 17.6667 16.4333 17.5 16.35C17.2667 16.2167 17.0208 16.0958 16.7625 15.9875C16.5042 15.8792 16.25 15.7833 16 15.7ZM10 15.175V16.5H14V15.175C13.6667 15.1083 13.3333 15.0625 13 15.0375C12.6667 15.0125 12.3333 15 12 15C11.6667 15 11.3333 15.0125 11 15.0375C10.6667 15.0625 10.3333 15.1083 10 15.175ZM6 18H8V15.7C7.75 15.7833 7.49583 15.8792 7.2375 15.9875C6.97917 16.0958 6.73333 16.2167 6.5 16.35C6.33333 16.4333 6.20833 16.55 6.125 16.7C6.04167 16.85 6 17.0167 6 17.2V18Z" fill="#0F2884"/>
</svg>
